<svg width="42" height="43" viewBox="0 0 42 43" fill="none" xmlns="http://www.w3.org/2000/svg">
<path opacity="0.2" d="M21.0007 5.75C17.8138 5.74907 14.7015 6.71496 12.0751 8.52008C9.44869 10.3252 7.43166 12.8846 6.29048 15.8602C5.14929 18.8358 4.93765 22.0876 5.6835 25.186C6.42935 28.2845 8.09761 31.0837 10.4679 33.2141C11.4555 31.2692 12.9624 29.6357 14.8215 28.4948C16.6807 27.3538 18.8194 26.7499 21.0007 26.75C19.7028 26.75 18.434 26.3651 17.3548 25.644C16.2756 24.9229 15.4344 23.898 14.9377 22.6989C14.441 21.4997 14.3111 20.1802 14.5643 18.9072C14.8175 17.6342 15.4425 16.4649 16.3603 15.5471C17.2781 14.6293 18.4474 14.0043 19.7204 13.7511C20.9934 13.4979 22.3129 13.6278 23.5121 14.1245C24.7112 14.6212 25.7361 15.4624 26.4572 16.5416C27.1783 17.6208 27.5632 18.8896 27.5632 20.1875C27.5632 21.928 26.8718 23.5972 25.6411 24.8279C24.4104 26.0586 22.7412 26.75 21.0007 26.75C23.182 26.7499 25.3207 27.3538 27.1799 28.4948C29.039 29.6357 30.5459 31.2692 31.5335 33.2141C33.9038 31.0837 35.572 28.2845 36.3179 25.186C37.0637 22.0876 36.8521 18.8358 35.7109 15.8602C34.5697 12.8846 32.5527 10.3252 29.9263 8.52008C27.2999 6.71496 24.1876 5.74907 21.0007 5.75Z" fill="#F64B4B"/>
<path d="M21 37.25C29.6985 37.25 36.75 30.1985 36.75 21.5C36.75 12.8015 29.6985 5.75 21 5.75C12.3015 5.75 5.25 12.8015 5.25 21.5C5.25 30.1985 12.3015 37.25 21 37.25Z" stroke="#F64B4B" stroke-width="2" stroke-linecap="round" stroke-linejoin="round"/>
<path d="M21 26.75C24.6244 26.75 27.5625 23.8119 27.5625 20.1875C27.5625 16.5631 24.6244 13.625 21 13.625C17.3756 13.625 14.4375 16.5631 14.4375 20.1875C14.4375 23.8119 17.3756 26.75 21 26.75Z" stroke="#F64B4B" stroke-width="2" stroke-linecap="round" stroke-linejoin="round"/>
<path d="M10.4688 33.2151C11.4563 31.27 12.9631 29.6363 14.8222 28.4952C16.6813 27.354 18.8202 26.75 21.0016 26.75C23.183 26.75 25.3218 27.354 27.1809 28.4952C29.04 29.6363 30.5469 31.27 31.5344 33.2151" stroke="#F64B4B" stroke-width="2" stroke-linecap="round" stroke-linejoin="round"/>
</svg>
