<svg width="26" height="25" viewBox="0 0 26 25" fill="none" xmlns="http://www.w3.org/2000/svg">
<path opacity="0.2" d="M11.9141 5.46875L6.08398 7.65625C5.95551 7.70519 5.84201 7.78677 5.75467 7.89294C5.66734 7.99912 5.60918 8.12622 5.58594 8.26172L3.32031 21.875L16.9434 19.6094C17.0778 19.5864 17.2038 19.5282 17.3084 19.4408C17.4131 19.3533 17.4927 19.2396 17.5391 19.1113L19.7266 13.2812L11.9141 5.46875ZM11.5234 15.625C11.1371 15.625 10.7595 15.5105 10.4383 15.2958C10.1171 15.0812 9.86681 14.7762 9.71899 14.4193C9.57116 14.0624 9.53248 13.6697 9.60784 13.2908C9.6832 12.912 9.86922 12.564 10.1424 12.2908C10.4155 12.0177 10.7635 11.8316 11.1424 11.7563C11.5213 11.6809 11.914 11.7196 12.2709 11.8674C12.6278 12.0153 12.9328 12.2656 13.1474 12.5868C13.362 12.908 13.4766 13.2856 13.4766 13.6719C13.474 14.1891 13.2674 14.6844 12.9017 15.0501C12.5359 15.4158 12.0406 15.6224 11.5234 15.625Z" fill="#009379"/>
<path d="M11.5234 15.625C12.6021 15.625 13.4766 14.7506 13.4766 13.6719C13.4766 12.5932 12.6021 11.7188 11.5234 11.7188C10.4448 11.7188 9.57031 12.5932 9.57031 13.6719C9.57031 14.7506 10.4448 15.625 11.5234 15.625Z" stroke="#009379" stroke-width="2" stroke-linecap="round" stroke-linejoin="round"/>
<path d="M3.32031 21.877L10.1465 15.0508" stroke="#009379" stroke-width="2" stroke-linecap="round" stroke-linejoin="round"/>
<path d="M3.32031 21.875L16.9434 19.6094C17.0778 19.5864 17.2038 19.5282 17.3084 19.4408C17.4131 19.3533 17.4927 19.2396 17.5391 19.1113L19.7266 13.2812L11.9141 5.46875L6.08398 7.65625C5.95551 7.70519 5.84201 7.78677 5.75467 7.89294C5.66734 7.99912 5.60918 8.12622 5.58594 8.26172L3.32031 21.875Z" stroke="#009379" stroke-width="2" stroke-linecap="round" stroke-linejoin="round"/>
<path d="M19.7266 13.2819L22.2949 10.7135C22.3687 10.6408 22.4274 10.5542 22.4674 10.4586C22.5074 10.3631 22.528 10.2605 22.528 10.1569C22.528 10.0533 22.5074 9.95073 22.4674 9.85516C22.4274 9.7596 22.3687 9.67295 22.2949 9.60026L15.5957 2.90104C15.523 2.82722 15.4364 2.7686 15.3408 2.72859C15.2452 2.68857 15.1427 2.66797 15.0391 2.66797C14.9355 2.66797 14.8329 2.68857 14.7373 2.72859C14.6418 2.7686 14.5551 2.82722 14.4824 2.90104L11.9141 5.4694" stroke="#009379" stroke-width="2" stroke-linecap="round" stroke-linejoin="round"/>
</svg>
