<svg width="42" height="43" viewBox="0 0 42 43" fill="none" xmlns="http://www.w3.org/2000/svg">
<path opacity="0.2" d="M14.4375 35.9375C15.1978 35.9379 15.9419 35.7181 16.58 35.3048C17.2181 34.8915 17.7229 34.3023 18.0334 33.6083C18.344 32.9144 18.447 32.1454 18.33 31.3942C18.213 30.6429 17.8811 29.9417 17.3742 29.375H35.7492C36.2561 29.9417 36.588 30.6429 36.705 31.3942C36.822 32.1454 36.719 32.9144 36.4084 33.6083C36.0979 34.3023 35.5931 34.8915 34.955 35.3048C34.3169 35.7181 33.5728 35.9379 32.8125 35.9375H14.4375Z" fill="#F8D57E"/>
<path d="M32.8125 29.375V11C32.8147 10.4823 32.7143 9.96935 32.5172 9.49065C32.3201 9.01195 32.0301 8.57703 31.6641 8.21096C31.298 7.8449 30.8631 7.55495 30.3844 7.35784C29.9057 7.16073 29.3927 7.06036 28.875 7.06253H6.5625" stroke="#F8D57E" stroke-width="2" stroke-linecap="round" stroke-linejoin="round"/>
<path d="M17.0625 17.5625H27.5625" stroke="#F8D57E" stroke-width="2" stroke-linecap="round" stroke-linejoin="round"/>
<path d="M17.0625 22.8125H27.5625" stroke="#F8D57E" stroke-width="2" stroke-linecap="round" stroke-linejoin="round"/>
<path d="M3.62578 13.6268C3.20076 13.1509 2.89774 12.5789 2.74283 11.9599C2.58791 11.341 2.58572 10.6937 2.73646 10.0737C2.8872 9.45368 3.18635 8.87962 3.60815 8.40088C4.02996 7.92215 4.56178 7.55309 5.15785 7.32548C5.75392 7.09786 6.39637 7.01851 7.0299 7.09425C7.66344 7.16999 8.26908 7.39855 8.79469 7.76026C9.3203 8.12197 9.75014 8.606 10.0472 9.17068C10.3443 9.73535 10.4997 10.3638 10.5 11.0018V32.0018C10.5003 32.6399 10.6557 33.2683 10.9528 33.8329C11.2499 34.3976 11.6797 34.8816 12.2053 35.2433C12.7309 35.6051 13.3366 35.8336 13.9701 35.9094C14.6036 35.9851 15.2461 35.9057 15.8422 35.6781C16.4382 35.4505 16.97 35.0815 17.3918 34.6027C17.8137 34.124 18.1128 33.5499 18.2635 32.9299C18.4143 32.31 18.4121 31.6626 18.2572 31.0437C18.1023 30.4247 17.7992 29.8527 17.3742 29.3768H35.7492C36.2561 29.9435 36.588 30.6448 36.705 31.396C36.822 32.1472 36.719 32.9162 36.4084 33.6101C36.0979 34.3041 35.5931 34.8933 34.955 35.3066C34.3169 35.7199 33.5728 35.9397 32.8125 35.9393H14.4375" stroke="#F8D57E" stroke-width="2" stroke-linecap="round" stroke-linejoin="round"/>
</svg>
