<svg width="26" height="26" viewBox="0 0 26 26" fill="none" xmlns="http://www.w3.org/2000/svg">
<path opacity="0.2" d="M7.0026 21.9277C6.92991 22.0015 6.84325 22.0602 6.74769 22.1002C6.65213 22.1402 6.54956 22.1608 6.44596 22.1608C6.34236 22.1608 6.23979 22.1402 6.14423 22.1002C6.04866 22.0602 5.96201 22.0015 5.88932 21.9277L3.8776 19.916C3.80378 19.8433 3.74516 19.7567 3.70515 19.6611C3.66514 19.5655 3.64453 19.463 3.64453 19.3594C3.64453 19.2558 3.66514 19.1532 3.70515 19.0576C3.74516 18.9621 3.80378 18.8754 3.8776 18.8027L14.2585 8.42188L17.3835 11.5469L7.0026 21.9277Z" fill="#009379"/>
<path d="M21.2891 13.1094V17.7969" stroke="#009379" stroke-width="2" stroke-linecap="round" stroke-linejoin="round"/>
<path d="M18.9453 15.4531H23.6328" stroke="#009379" stroke-width="2" stroke-linecap="round" stroke-linejoin="round"/>
<path d="M8.39844 4.51562V8.42188" stroke="#009379" stroke-width="2" stroke-linecap="round" stroke-linejoin="round"/>
<path d="M6.44531 6.46875H10.3516" stroke="#009379" stroke-width="2" stroke-linecap="round" stroke-linejoin="round"/>
<path d="M16.6016 18.5781V21.7031" stroke="#009379" stroke-width="2" stroke-linecap="round" stroke-linejoin="round"/>
<path d="M15.0391 20.1406H18.1641" stroke="#009379" stroke-width="2" stroke-linecap="round" stroke-linejoin="round"/>
<path d="M18.4025 4.28502L3.88055 18.8069C3.57546 19.112 3.57546 19.6067 3.88055 19.9118L5.90036 21.9316C6.20546 22.2367 6.70012 22.2367 7.00522 21.9316L21.5271 7.40968C21.8322 7.10459 21.8322 6.60993 21.5271 6.30483L19.5073 4.28502C19.2022 3.97992 18.7076 3.97992 18.4025 4.28502Z" stroke="#009379" stroke-width="2" stroke-linecap="round" stroke-linejoin="round"/>
<path d="M14.2578 8.42188L17.3828 11.5469" stroke="#009379" stroke-width="2" stroke-linecap="round" stroke-linejoin="round"/>
</svg>
