<svg width="26" height="26" viewBox="0 0 26 26" fill="none" xmlns="http://www.w3.org/2000/svg">
<path opacity="0.2" d="M17.9805 7.10938C18.4275 7.92345 18.6626 8.83689 18.6641 9.76562V10.1465C18.6656 10.4992 18.5463 10.8418 18.326 11.1172C18.1056 11.3926 17.7976 11.5843 17.4531 11.6602C16.0557 11.9725 14.6271 12.1232 13.1953 12.1094C11.7635 12.1232 10.3349 11.9725 8.9375 11.6602C8.59305 11.5843 8.285 11.3926 8.06466 11.1172C7.84432 10.8418 7.725 10.4992 7.72656 10.1465V9.84375C7.72713 8.88516 7.97611 7.94308 8.44922 7.10938C4.78711 7.86133 2.25781 9.47266 2.25781 11.3281C2.25781 13.916 7.15039 16.0156 13.1953 16.0156C19.2402 16.0156 24.1328 13.916 24.1328 11.3281C24.1328 9.47266 21.623 7.87109 17.9805 7.10938Z" fill="#009379"/>
<path d="M17.1797 18.8203L17.5605 21.125" stroke="#009379" stroke-width="2" stroke-linecap="round" stroke-linejoin="round"/>
<path d="M13.1953 19.1406V22.2656" stroke="#009379" stroke-width="2" stroke-linecap="round" stroke-linejoin="round"/>
<path d="M9.20898 18.8203L8.82812 21.125" stroke="#009379" stroke-width="2" stroke-linecap="round" stroke-linejoin="round"/>
<path d="M17.9805 7.10938C21.623 7.87109 24.1328 9.47266 24.1328 11.3281C24.1328 13.916 19.2402 16.0156 13.1953 16.0156C7.15039 16.0156 2.25781 13.916 2.25781 11.3281C2.25781 9.47266 4.78711 7.86133 8.44922 7.10938" stroke="#009379" stroke-width="2" stroke-linecap="round" stroke-linejoin="round"/>
<path d="M7.72658 10.1469C7.72501 10.4996 7.84434 10.8422 8.06468 11.1176C8.28501 11.3931 8.59306 11.5847 8.93752 11.6606C10.3349 11.9729 11.7635 12.1236 13.1953 12.1098C14.6271 12.1236 16.0558 11.9729 17.4531 11.6606C17.7976 11.5847 18.1056 11.3931 18.326 11.1176C18.5463 10.8422 18.6656 10.4996 18.6641 10.1469V9.76605C18.6641 9.0421 18.5204 8.32534 18.2414 7.65734C17.9623 6.98935 17.5533 6.38342 17.0382 5.87469C16.5231 5.36597 15.9122 4.96458 15.2408 4.6938C14.5694 4.42302 13.8509 4.28825 13.127 4.2973C10.1192 4.33636 7.72658 6.84613 7.72658 9.84418V10.1469Z" stroke="#009379" stroke-width="2" stroke-linecap="round" stroke-linejoin="round"/>
</svg>
