<svg width="42" height="43" viewBox="0 0 42 43" fill="none" xmlns="http://www.w3.org/2000/svg">
<path opacity="0.2" d="M15.4383 30.7867C13.568 36.3484 6.15234 36.3484 6.15234 36.3484C6.15234 36.3484 6.15234 28.9328 11.7141 27.0625L15.4383 30.7867Z" fill="#009379"/>
<path opacity="0.2" d="M30.2859 19.6445V30.243C30.281 30.5892 30.1395 30.9194 29.8922 31.1617L24.593 36.4773C24.4248 36.6453 24.2143 36.7644 23.9838 36.822C23.7532 36.8797 23.5114 36.8736 23.284 36.8046C23.0566 36.7355 22.8523 36.6061 22.6927 36.43C22.5332 36.2539 22.4245 36.0377 22.3781 35.8047L21 28.9305L30.2859 19.6445Z" fill="#009379"/>
<path opacity="0.2" d="M22.8534 12.2148H12.255C11.9088 12.2198 11.5786 12.3613 11.3362 12.6086L6.02061 17.9078C5.85268 18.0759 5.73354 18.2865 5.67591 18.517C5.61828 18.7475 5.62431 18.9894 5.69336 19.2168C5.76241 19.4441 5.89189 19.6485 6.06799 19.808C6.24409 19.9676 6.4602 20.0763 6.69326 20.1227L13.5675 21.5008L22.8534 12.2148Z" fill="#009379"/>
<path d="M15.4383 30.7867C13.568 36.3484 6.15234 36.3484 6.15234 36.3484C6.15234 36.3484 6.15234 28.9328 11.7141 27.0625" stroke="#009379" stroke-width="2" stroke-linecap="round" stroke-linejoin="round"/>
<path d="M32.1383 17.7918L20.9984 28.9317L13.5664 21.4997L24.7063 10.3598C28.9227 6.1434 33.1391 6.19262 34.9438 6.45512C35.2222 6.49227 35.4807 6.62004 35.6794 6.81869C35.8781 7.01735 36.0058 7.27586 36.043 7.55434C36.3055 9.35903 36.3547 13.5754 32.1383 17.7918Z" stroke="#009379" stroke-width="2" stroke-linecap="round" stroke-linejoin="round"/>
<path d="M30.2859 19.6445V30.243C30.281 30.5892 30.1395 30.9194 29.8922 31.1617L24.593 36.4773C24.4248 36.6453 24.2143 36.7644 23.9838 36.822C23.7532 36.8797 23.5114 36.8736 23.284 36.8046C23.0566 36.7355 22.8523 36.6061 22.6927 36.43C22.5332 36.2539 22.4245 36.0377 22.3781 35.8047L21 28.9305" stroke="#009379" stroke-width="2" stroke-linecap="round" stroke-linejoin="round"/>
<path d="M22.8534 12.2148H12.255C11.9088 12.2198 11.5786 12.3613 11.3362 12.6086L6.02061 17.9078C5.85268 18.0759 5.73354 18.2865 5.67591 18.517C5.61828 18.7475 5.62431 18.9894 5.69336 19.2168C5.76241 19.4441 5.89189 19.6485 6.06799 19.808C6.24409 19.9676 6.4602 20.0763 6.69326 20.1227L13.5675 21.5008" stroke="#009379" stroke-width="2" stroke-linecap="round" stroke-linejoin="round"/>
</svg>
