<svg width="40" height="40" viewBox="0 0 40 40" fill="none" xmlns="http://www.w3.org/2000/svg">
<path opacity="0.2" d="M27.6562 10.75C28.3715 12.0525 28.7476 13.514 28.75 15V15.6094C28.7525 16.1737 28.5616 16.7219 28.209 17.1625C27.8565 17.6032 27.3636 17.9098 26.8125 18.0312C24.5767 18.531 22.2909 18.7721 20 18.75C17.7091 18.7721 15.4233 18.531 13.1875 18.0312C12.6364 17.9098 12.1435 17.6032 11.791 17.1625C11.4384 16.7219 11.2475 16.1737 11.25 15.6094V15.125C11.2509 13.5913 11.6493 12.0839 12.4062 10.75C6.54688 11.9531 2.5 14.5312 2.5 17.5C2.5 21.6406 10.3281 25 20 25C29.6719 25 37.5 21.6406 37.5 17.5C37.5 14.5312 33.4844 11.9688 27.6562 10.75Z" fill="white"/>
<path d="M26.375 29.4844L26.9844 33.1719" stroke="white" stroke-width="2" stroke-linecap="round" stroke-linejoin="round"/>
<path d="M20 30V35" stroke="white" stroke-width="2" stroke-linecap="round" stroke-linejoin="round"/>
<path d="M13.625 29.4844L13.0156 33.1719" stroke="white" stroke-width="2" stroke-linecap="round" stroke-linejoin="round"/>
<path d="M27.6562 10.75C33.4844 11.9688 37.5 14.5312 37.5 17.5C37.5 21.6406 29.6719 25 20 25C10.3281 25 2.5 21.6406 2.5 17.5C2.5 14.5312 6.54688 11.9531 12.4063 10.75" stroke="white" stroke-width="2" stroke-linecap="round" stroke-linejoin="round"/>
<path d="M11.25 15.6101C11.2475 16.1744 11.4384 16.7226 11.791 17.1632C12.1435 17.6039 12.6364 17.9105 13.1875 18.0319C15.4233 18.5317 17.7092 18.7728 20 18.7507C22.2909 18.7728 24.5767 18.5317 26.8125 18.0319C27.3636 17.9105 27.8565 17.6039 28.2091 17.1632C28.5616 16.7226 28.7525 16.1744 28.75 15.6101V15.0007C28.7501 13.8424 28.5202 12.6955 28.0737 11.6267C27.6271 10.558 26.9728 9.58846 26.1487 8.77451C25.3245 7.96055 24.347 7.31832 23.2727 6.88508C22.1985 6.45184 21.0489 6.2362 19.8906 6.25068C15.0782 6.31318 11.25 10.3288 11.25 15.1257V15.6101Z" stroke="white" stroke-width="2" stroke-linecap="round" stroke-linejoin="round"/>
</svg>
