<svg width="26" height="26" viewBox="0 0 26 26" fill="none" xmlns="http://www.w3.org/2000/svg">
<path opacity="0.2" d="M13.1953 15.4551C9.90317 15.4636 6.66785 14.5975 3.82031 12.9453V20.9238C3.82031 21.131 3.90262 21.3297 4.04914 21.4763C4.19565 21.6228 4.39436 21.7051 4.60156 21.7051H21.7891C21.9963 21.7051 22.195 21.6228 22.3415 21.4763C22.488 21.3297 22.5703 21.131 22.5703 20.9238V12.9453C19.721 14.5932 16.4868 15.459 13.1953 15.4551Z" fill="#009379"/>
<path d="M21.7891 7.64062H4.60156C4.17009 7.64062 3.82031 7.9904 3.82031 8.42188V20.9219C3.82031 21.3533 4.17009 21.7031 4.60156 21.7031H21.7891C22.2205 21.7031 22.5703 21.3533 22.5703 20.9219V8.42188C22.5703 7.9904 22.2205 7.64062 21.7891 7.64062Z" stroke="#009379" stroke-width="2" stroke-linecap="round" stroke-linejoin="round"/>
<path d="M17.1016 7.64062V6.07812C17.1016 5.66372 16.9369 5.2663 16.6439 4.97327C16.3509 4.68024 15.9535 4.51563 15.5391 4.51562H10.8516C10.4372 4.51563 10.0397 4.68024 9.74671 4.97327C9.45368 5.2663 9.28906 5.66372 9.28906 6.07812V7.64062" stroke="#009379" stroke-width="2" stroke-linecap="round" stroke-linejoin="round"/>
<path d="M22.5703 12.9453C19.721 14.5932 16.4868 15.459 13.1953 15.4551C9.90317 15.4636 6.66785 14.5975 3.82031 12.9453" stroke="#009379" stroke-width="2" stroke-linecap="round" stroke-linejoin="round"/>
<path d="M12.0234 12.3281H14.3672" stroke="#009379" stroke-width="2" stroke-linecap="round" stroke-linejoin="round"/>
</svg>
