<svg width="26" height="26" viewBox="0 0 26 26" fill="none" xmlns="http://www.w3.org/2000/svg">
<path opacity="0.2" d="M2.84343 14.5801C2.40972 13.3214 2.48766 11.9427 3.06046 10.7409C3.63326 9.53912 4.65511 8.61033 5.90598 8.15454C7.15685 7.69874 8.53669 7.75241 9.74838 8.30397C10.9601 8.85553 11.9067 9.86088 12.3844 11.1035L2.84343 14.5801Z" fill="#009379"/>
<path opacity="0.2" d="M20.9863 9.64062C21.42 10.8993 21.3421 12.278 20.7693 13.4798C20.1965 14.6816 19.1746 15.6104 17.9238 16.0662C16.6729 16.522 15.2931 16.4683 14.0814 15.9168C12.8697 15.3652 11.923 14.3598 11.4453 13.1172L20.9863 9.64062Z" fill="#009379"/>
<path d="M9.44531 3.03874C10.704 2.60503 12.0827 2.68297 13.2845 3.25577C14.4863 3.82858 15.4151 4.85043 15.8709 6.1013C16.3267 7.35217 16.273 8.732 15.7214 9.9437C15.1699 11.1554 14.1645 12.102 12.9219 12.5798L9.44531 3.03874Z" stroke="#009379" stroke-width="2" stroke-linecap="round" stroke-linejoin="round"/>
<path d="M2.84343 14.5801C2.40972 13.3214 2.48766 11.9427 3.06046 10.7409C3.63326 9.53912 4.65511 8.61033 5.90598 8.15454C7.15685 7.69874 8.53669 7.75241 9.74838 8.30397C10.9601 8.85553 11.9067 9.86088 12.3844 11.1035L2.84343 14.5801Z" stroke="#009379" stroke-width="2" stroke-linecap="round" stroke-linejoin="round"/>
<path d="M14.3848 21.1816C13.1261 21.6153 11.7474 21.5374 10.5456 20.9646C9.34381 20.3918 8.41502 19.37 7.95922 18.1191C7.50343 16.8682 7.55709 15.4884 8.10866 14.2767C8.66022 13.065 9.66556 12.1184 10.9082 11.6406L14.3848 21.1816Z" stroke="#009379" stroke-width="2" stroke-linecap="round" stroke-linejoin="round"/>
<path d="M20.9863 9.64062C21.42 10.8993 21.3421 12.278 20.7693 13.4798C20.1965 14.6816 19.1746 15.6104 17.9238 16.0662C16.6729 16.522 15.2931 16.4683 14.0814 15.9168C12.8697 15.3652 11.923 14.3598 11.4453 13.1172L20.9863 9.64062Z" stroke="#009379" stroke-width="2" stroke-linecap="round" stroke-linejoin="round"/>
<path d="M16.2578 16.4531L22.0684 22.2637" stroke="#009379" stroke-width="2" stroke-linecap="round" stroke-linejoin="round"/>
</svg>
