<svg width="42" height="42" viewBox="0 0 42 42" fill="none" xmlns="http://www.w3.org/2000/svg">
<path opacity="0.2" d="M19.6875 9.1875L9.89297 12.8625C9.67713 12.9447 9.48645 13.0818 9.33973 13.2601C9.193 13.4385 9.0953 13.652 9.05625 13.8797L5.25 36.75L28.1367 32.9438C28.3626 32.9052 28.5742 32.8075 28.75 32.6605C28.9259 32.5135 29.0595 32.3225 29.1375 32.107L32.8125 22.3125L19.6875 9.1875ZM19.0312 26.25C18.3823 26.25 17.7479 26.0576 17.2083 25.697C16.6687 25.3365 16.2481 24.824 15.9998 24.2244C15.7514 23.6249 15.6864 22.9651 15.813 22.3286C15.9397 21.6921 16.2522 21.1074 16.7111 20.6486C17.1699 20.1897 17.7546 19.8772 18.3911 19.7505C19.0276 19.6239 19.6874 19.6889 20.2869 19.9373C20.8865 20.1856 21.399 20.6062 21.7595 21.1458C22.1201 21.6854 22.3125 22.3198 22.3125 22.9688C22.3082 23.8377 21.9611 24.6698 21.3467 25.2842C20.7323 25.8986 19.9002 26.2457 19.0312 26.25Z" fill="#F64B4B"/>
<path d="M19.0312 26.25C20.8434 26.25 22.3125 24.7809 22.3125 22.9688C22.3125 21.1566 20.8434 19.6875 19.0312 19.6875C17.2191 19.6875 15.75 21.1566 15.75 22.9688C15.75 24.7809 17.2191 26.25 19.0312 26.25Z" stroke="#F64B4B" stroke-width="2" stroke-linecap="round" stroke-linejoin="round"/>
<path d="M5.25 36.7492L16.718 25.2812" stroke="#F64B4B" stroke-width="2" stroke-linecap="round" stroke-linejoin="round"/>
<path d="M5.25 36.75L28.1367 32.9438C28.3626 32.9052 28.5742 32.8075 28.75 32.6605C28.9259 32.5135 29.0595 32.3225 29.1375 32.107L32.8125 22.3125L19.6875 9.1875L9.89297 12.8625C9.67713 12.9447 9.48645 13.0818 9.33973 13.2601C9.193 13.4385 9.0953 13.652 9.05625 13.8797L5.25 36.75Z" stroke="#F64B4B" stroke-width="2" stroke-linecap="round" stroke-linejoin="round"/>
<path d="M32.8125 22.3119L37.1273 17.997C37.2514 17.8749 37.3498 17.7293 37.4171 17.5688C37.4843 17.4082 37.5189 17.2359 37.5189 17.0619C37.5189 16.8878 37.4843 16.7155 37.4171 16.555C37.3498 16.3944 37.2514 16.2488 37.1273 16.1267L25.8727 4.87202C25.7505 4.74801 25.605 4.64953 25.4444 4.58231C25.2839 4.51509 25.1116 4.48047 24.9375 4.48047C24.7634 4.48047 24.5911 4.51509 24.4306 4.58231C24.27 4.64953 24.1245 4.74801 24.0023 4.87202L19.6875 9.18687" stroke="#F64B4B" stroke-width="2" stroke-linecap="round" stroke-linejoin="round"/>
</svg>
