<svg width="21" height="20" viewBox="0 0 21 20" fill="none" xmlns="http://www.w3.org/2000/svg">
<path opacity="0.2" d="M3.08594 5.82812C3.02933 5.92536 2.99966 6.03593 3 6.14844V13.8516C3.0006 13.9628 3.03053 14.072 3.08676 14.168C3.143 14.264 3.22356 14.3435 3.32032 14.3984L10.1953 18.2656C10.288 18.3186 10.3933 18.3456 10.5 18.3438L10.5703 10L3.08594 5.82812Z" fill="white"/>
<path d="M18 13.8512V6.14805C17.9994 6.03678 17.9695 5.92763 17.9132 5.83162C17.857 5.73561 17.7764 5.65612 17.6797 5.60117L10.8047 1.73398C10.7121 1.6805 10.607 1.65234 10.5 1.65234C10.393 1.65234 10.2879 1.6805 10.1953 1.73398L3.32031 5.60117C3.22356 5.65612 3.143 5.73561 3.08676 5.83162C3.03052 5.92763 3.0006 6.03678 3 6.14805V13.8512C3.0006 13.9624 3.03052 14.0716 3.08676 14.1676C3.143 14.2636 3.22356 14.3431 3.32031 14.398L10.1953 18.2652C10.2879 18.3187 10.393 18.3469 10.5 18.3469C10.607 18.3469 10.7121 18.3187 10.8047 18.2652L17.6797 14.398C17.7764 14.3431 17.857 14.2636 17.9132 14.1676C17.9695 14.0716 17.9994 13.9624 18 13.8512V13.8512Z" stroke="white" stroke-width="2" stroke-linecap="round" stroke-linejoin="round"/>
<path d="M17.9141 5.82812L10.5703 10L3.08594 5.82812" stroke="white" stroke-width="2" stroke-linecap="round" stroke-linejoin="round"/>
<path d="M10.5703 10L10.5 18.3438" stroke="white" stroke-width="2" stroke-linecap="round" stroke-linejoin="round"/>
</svg>
