<svg width="20" height="21" viewBox="0 0 20 21" fill="none" xmlns="http://www.w3.org/2000/svg">
<path opacity="0.2" d="M2.58594 6.49609C2.52933 6.59333 2.49966 6.70389 2.5 6.81641V14.5195C2.5006 14.6308 2.53053 14.7399 2.58676 14.836C2.643 14.932 2.72356 15.0115 2.82032 15.0664L9.69532 18.9336C9.78801 18.9866 9.89326 19.0135 10 19.0117V19.0117L10.0703 10.668L2.58594 6.49609Z" fill="white"/>
<path d="M17.5 14.5191V6.81602C17.4994 6.70475 17.4695 6.5956 17.4132 6.49959C17.357 6.40357 17.2764 6.32409 17.1797 6.26914L10.3047 2.40195C10.2121 2.34847 10.107 2.32031 10 2.32031C9.89303 2.32031 9.78795 2.34847 9.69531 2.40195L2.82031 6.26914C2.72356 6.32409 2.643 6.40357 2.58676 6.49959C2.53052 6.5956 2.5006 6.70475 2.5 6.81602V14.5191C2.5006 14.6304 2.53052 14.7396 2.58676 14.8356C2.643 14.9316 2.72356 15.0111 2.82031 15.066L9.69531 18.9332C9.78795 18.9867 9.89303 19.0148 10 19.0148C10.107 19.0148 10.2121 18.9867 10.3047 18.9332L17.1797 15.066C17.2764 15.0111 17.357 14.9316 17.4132 14.8356C17.4695 14.7396 17.4994 14.6304 17.5 14.5191V14.5191Z" stroke="white" stroke-width="2" stroke-linecap="round" stroke-linejoin="round"/>
<path d="M17.4141 6.49609L10.0703 10.668L2.58594 6.49609" stroke="white" stroke-width="2" stroke-linecap="round" stroke-linejoin="round"/>
<path d="M10.0703 10.668L10 19.0117" stroke="white" stroke-width="2" stroke-linecap="round" stroke-linejoin="round"/>
</svg>
