<svg width="24" height="24" viewBox="0 0 24 24" fill="none" xmlns="http://www.w3.org/2000/svg">
<path d="M12.635 3.26321C12.4663 3.09467 12.2375 3 11.999 3C11.7605 3 11.5318 3.09467 11.363 3.26321L6.26301 8.36321C6.10404 8.53382 6.01749 8.75947 6.0216 8.99264C6.02572 9.2258 6.12017 9.44826 6.28507 9.61315C6.44996 9.77805 6.67242 9.87251 6.90559 9.87662C7.13875 9.88073 7.3644 9.79418 7.53501 9.63521L11.999 5.17121L16.463 9.63521C16.5454 9.72363 16.6448 9.79456 16.7552 9.84375C16.8656 9.89294 16.9847 9.91939 17.1056 9.92152C17.2264 9.92365 17.3465 9.90142 17.4585 9.85616C17.5706 9.81089 17.6724 9.74352 17.7579 9.65805C17.8433 9.57259 17.9107 9.47079 17.956 9.35873C18.0012 9.24666 18.0235 9.12662 18.0213 9.00578C18.0192 8.88494 17.9927 8.76576 17.9436 8.65536C17.8944 8.54496 17.8234 8.4456 17.735 8.36321L12.635 3.26321ZM17.735 15.6352L12.635 20.7352C12.4663 20.9037 12.2375 20.9984 11.999 20.9984C11.7605 20.9984 11.5318 20.9037 11.363 20.7352L6.26301 15.6352C6.17459 15.5528 6.10367 15.4535 6.05447 15.3431C6.00528 15.2327 5.97883 15.1135 5.9767 14.9926C5.97457 14.8718 5.9968 14.7518 6.04206 14.6397C6.08733 14.5276 6.1547 14.4258 6.24017 14.3404C6.32563 14.2549 6.42743 14.1875 6.53949 14.1423C6.65156 14.097 6.7716 14.0748 6.89244 14.0769C7.01328 14.079 7.13246 14.1055 7.24286 14.1547C7.35326 14.2039 7.45262 14.2748 7.53501 14.3632L11.999 18.8272L16.463 14.3632C16.5454 14.2748 16.6448 14.2039 16.7552 14.1547C16.8656 14.1055 16.9847 14.079 17.1056 14.0769C17.2264 14.0748 17.3465 14.097 17.4585 14.1423C17.5706 14.1875 17.6724 14.2549 17.7579 14.3404C17.8433 14.4258 17.9107 14.5276 17.956 14.6397C18.0012 14.7518 18.0235 14.8718 18.0213 14.9926C18.0192 15.1135 17.9927 15.2327 17.9436 15.3431C17.8944 15.4535 17.8234 15.5528 17.735 15.6352Z" fill="#009379"/>
</svg>
