<svg width="24" height="24" viewBox="0 0 24 24" fill="none" xmlns="http://www.w3.org/2000/svg">
<path d="M6 4.50391C6 3.70826 6.31607 2.9452 6.87868 2.38259C7.44129 1.81998 8.20435 1.50391 9 1.50391H14.373C14.9695 1.50443 15.5414 1.74183 15.963 2.16391L20.3415 6.53791C20.763 6.9597 20.9999 7.53159 21 8.12791V19.4979C21 20.2936 20.6839 21.0566 20.1213 21.6192C19.5587 22.1818 18.7956 22.4979 18 22.4979H12.999C13.6035 22.0719 14.1465 21.5679 14.616 20.9979H18C18.3978 20.9979 18.7794 20.8399 19.0607 20.5586C19.342 20.2773 19.5 19.8957 19.5 19.4979V9.00541H15.75C15.1533 9.00541 14.581 8.76835 14.159 8.3464C13.7371 7.92444 13.5 7.35214 13.5 6.75541V3.00391H9C8.60218 3.00391 8.22064 3.16194 7.93934 3.44325C7.65804 3.72455 7.5 4.10608 7.5 4.50391V7.53391C6.9925 7.57988 6.49036 7.67278 6 7.81141V4.50391ZM15 3.31891V6.75391C15 6.95282 15.079 7.14358 15.2197 7.28424C15.3603 7.42489 15.5511 7.50391 15.75 7.50391H19.1865L15 3.31891ZM15 15.7509C15 17.5411 14.2888 19.258 13.023 20.5239C11.7571 21.7897 10.0402 22.5009 8.25 22.5009C6.45979 22.5009 4.7429 21.7897 3.47703 20.5239C2.21116 19.258 1.5 17.5411 1.5 15.7509C1.5 13.9607 2.21116 12.2438 3.47703 10.9779C4.7429 9.71206 6.45979 9.00091 8.25 9.00091C10.0402 9.00091 11.7571 9.71206 13.023 10.9779C14.2888 12.2438 15 13.9607 15 15.7509ZM7.719 19.2804L7.7235 19.2849C7.8627 19.4222 8.05 19.4997 8.2455 19.5009H8.2545C8.45147 19.4997 8.64005 19.421 8.7795 19.2819L11.7795 16.2819C11.8492 16.2123 11.9046 16.1296 11.9423 16.0386C11.9801 15.9475 11.9996 15.85 11.9997 15.7514C11.9997 15.6529 11.9804 15.5553 11.9427 15.4642C11.9051 15.3732 11.8499 15.2904 11.7802 15.2207C11.7106 15.1509 11.6279 15.0956 11.5369 15.0578C11.4459 15.02 11.3483 15.0006 11.2498 15.0005C11.1512 15.0004 11.0536 15.0198 10.9626 15.0574C10.8715 15.0951 10.7887 15.1503 10.719 15.2199L9 16.9404V12.7509C9 12.552 8.92098 12.3612 8.78033 12.2206C8.63968 12.0799 8.44891 12.0009 8.25 12.0009C8.05109 12.0009 7.86032 12.0799 7.71967 12.2206C7.57902 12.3612 7.5 12.552 7.5 12.7509V16.9404L5.781 15.2199C5.64017 15.0791 5.44916 15 5.25 15C5.05084 15 4.85983 15.0791 4.719 15.2199C4.57817 15.3607 4.49905 15.5517 4.49905 15.7509C4.49905 15.9501 4.57817 16.1411 4.719 16.2819L7.719 19.2804Z" fill="black"/>
</svg>
