<svg width="24" height="25" viewBox="0 0 24 25" fill="none" xmlns="http://www.w3.org/2000/svg">
<path d="M12.635 3.76321C12.4663 3.59467 12.2375 3.5 11.999 3.5C11.7605 3.5 11.5318 3.59467 11.363 3.76321L6.26301 8.86321C6.10404 9.03382 6.01749 9.25947 6.0216 9.49264C6.02572 9.7258 6.12017 9.94826 6.28507 10.1132C6.44996 10.278 6.67242 10.3725 6.90559 10.3766C7.13875 10.3807 7.3644 10.2942 7.53501 10.1352L11.999 5.67121L16.463 10.1352C16.5454 10.2236 16.6448 10.2946 16.7552 10.3437C16.8656 10.3929 16.9847 10.4194 17.1056 10.4215C17.2264 10.4237 17.3465 10.4014 17.4585 10.3562C17.5706 10.3109 17.6724 10.2435 17.7579 10.1581C17.8433 10.0726 17.9107 9.97079 17.956 9.85873C18.0012 9.74666 18.0235 9.62662 18.0213 9.50578C18.0192 9.38494 17.9927 9.26576 17.9436 9.15536C17.8944 9.04496 17.8234 8.9456 17.735 8.86321L12.635 3.76321ZM17.735 16.1352L12.635 21.2352C12.4663 21.4037 12.2375 21.4984 11.999 21.4984C11.7605 21.4984 11.5318 21.4037 11.363 21.2352L6.26301 16.1352C6.17459 16.0528 6.10367 15.9535 6.05447 15.8431C6.00528 15.7327 5.97883 15.6135 5.9767 15.4926C5.97457 15.3718 5.9968 15.2518 6.04206 15.1397C6.08733 15.0276 6.1547 14.9258 6.24017 14.8404C6.32563 14.7549 6.42743 14.6875 6.53949 14.6423C6.65156 14.597 6.7716 14.5748 6.89244 14.5769C7.01328 14.579 7.13246 14.6055 7.24286 14.6547C7.35326 14.7039 7.45262 14.7748 7.53501 14.8632L11.999 19.3272L16.463 14.8632C16.5454 14.7748 16.6448 14.7039 16.7552 14.6547C16.8656 14.6055 16.9847 14.579 17.1056 14.5769C17.2264 14.5748 17.3465 14.597 17.4585 14.6423C17.5706 14.6875 17.6724 14.7549 17.7579 14.8404C17.8433 14.9258 17.9107 15.0276 17.956 15.1397C18.0012 15.2518 18.0235 15.3718 18.0213 15.4926C18.0192 15.6135 17.9927 15.7327 17.9436 15.8431C17.8944 15.9535 17.8234 16.0528 17.735 16.1352Z" fill="black"/>
</svg>
