<svg width="24" height="25" viewBox="0 0 24 25" fill="none" xmlns="http://www.w3.org/2000/svg">
<path d="M6 5.00391C6 4.20826 6.31607 3.4452 6.87868 2.88259C7.44129 2.31998 8.20435 2.00391 9 2.00391H14.373C14.9695 2.00443 15.5414 2.24183 15.963 2.66391L20.3415 7.03791C20.763 7.4597 20.9999 8.03159 21 8.62791V19.9979C21 20.7936 20.6839 21.5566 20.1213 22.1192C19.5587 22.6818 18.7956 22.9979 18 22.9979H12.999C13.6035 22.5719 14.1465 22.0679 14.616 21.4979H18C18.3978 21.4979 18.7794 21.3399 19.0607 21.0586C19.342 20.7773 19.5 20.3957 19.5 19.9979V9.50541H15.75C15.1533 9.50541 14.581 9.26835 14.159 8.8464C13.7371 8.42444 13.5 7.85214 13.5 7.25541V3.50391H9C8.60218 3.50391 8.22064 3.66194 7.93934 3.94325C7.65804 4.22455 7.5 4.60608 7.5 5.00391V8.03391C6.9925 8.07988 6.49036 8.17278 6 8.31141V5.00391ZM15 3.81891V7.25391C15 7.45282 15.079 7.64358 15.2197 7.78424C15.3603 7.92489 15.5511 8.00391 15.75 8.00391H19.1865L15 3.81891ZM15 16.2509C15 18.0411 14.2888 19.758 13.023 21.0239C11.7571 22.2897 10.0402 23.0009 8.25 23.0009C6.45979 23.0009 4.7429 22.2897 3.47703 21.0239C2.21116 19.758 1.5 18.0411 1.5 16.2509C1.5 14.4607 2.21116 12.7438 3.47703 11.4779C4.7429 10.2121 6.45979 9.50091 8.25 9.50091C10.0402 9.50091 11.7571 10.2121 13.023 11.4779C14.2888 12.7438 15 14.4607 15 16.2509ZM7.719 19.7804L7.7235 19.7849C7.8627 19.9222 8.05 19.9997 8.2455 20.0009H8.2545C8.45147 19.9997 8.64005 19.921 8.7795 19.7819L11.7795 16.7819C11.8492 16.7123 11.9046 16.6296 11.9423 16.5386C11.9801 16.4475 11.9996 16.35 11.9997 16.2514C11.9997 16.1529 11.9804 16.0553 11.9427 15.9642C11.9051 15.8732 11.8499 15.7904 11.7802 15.7207C11.7106 15.6509 11.6279 15.5956 11.5369 15.5578C11.4459 15.52 11.3483 15.5006 11.2498 15.5005C11.1512 15.5004 11.0536 15.5198 10.9626 15.5574C10.8715 15.5951 10.7887 15.6503 10.719 15.7199L9 17.4404V13.2509C9 13.052 8.92098 12.8612 8.78033 12.7206C8.63968 12.5799 8.44891 12.5009 8.25 12.5009C8.05109 12.5009 7.86032 12.5799 7.71967 12.7206C7.57902 12.8612 7.5 13.052 7.5 13.2509V17.4404L5.781 15.7199C5.64017 15.5791 5.44916 15.5 5.25 15.5C5.05084 15.5 4.85983 15.5791 4.719 15.7199C4.57817 15.8607 4.49905 16.0517 4.49905 16.2509C4.49905 16.4501 4.57817 16.6411 4.719 16.7819L7.719 19.7804Z" fill="black"/>
</svg>
