<svg width="2041" height="1642" viewBox="0 0 2041 1642" fill="none" xmlns="http://www.w3.org/2000/svg">
<g filter="url(#filter0_f_601_20584)">
<path fill-rule="evenodd" clip-rule="evenodd" d="M1559.63 300C1667.54 300 1740.48 401.017 1740.48 508.93C1740.48 622.997 1673.7 738.296 1559.63 738.296C1434.53 738.296 1336 634.031 1336 508.93C1336 389.413 1440.11 300 1559.63 300Z" fill="url(#paint0_linear_601_20584)"/>
</g>
<g filter="url(#filter1_f_601_20584)">
<path fill-rule="evenodd" clip-rule="evenodd" d="M523.63 903C631.543 903 704.478 1004.02 704.478 1111.93C704.478 1226 637.697 1341.3 523.63 1341.3C398.528 1341.3 300 1237.03 300 1111.93C300 992.413 404.113 903 523.63 903Z" fill="url(#paint1_linear_601_20584)"/>
</g>
<defs>
<filter id="filter0_f_601_20584" x="1036" y="0" width="1004.48" height="1038.3" filterUnits="userSpaceOnUse" color-interpolation-filters="sRGB">
<feFlood flood-opacity="0" result="BackgroundImageFix"/>
<feBlend mode="normal" in="SourceGraphic" in2="BackgroundImageFix" result="shape"/>
<feGaussianBlur stdDeviation="150" result="effect1_foregroundBlur_601_20584"/>
</filter>
<filter id="filter1_f_601_20584" x="0" y="603" width="1004.48" height="1038.3" filterUnits="userSpaceOnUse" color-interpolation-filters="sRGB">
<feFlood flood-opacity="0" result="BackgroundImageFix"/>
<feBlend mode="normal" in="SourceGraphic" in2="BackgroundImageFix" result="shape"/>
<feGaussianBlur stdDeviation="150" result="effect1_foregroundBlur_601_20584"/>
</filter>
<linearGradient id="paint0_linear_601_20584" x1="1538.24" y1="300" x2="1538.24" y2="738.296" gradientUnits="userSpaceOnUse">
<stop stop-color="#EFFFEF"/>
<stop offset="1" stop-color="#00FFD1"/>
</linearGradient>
<linearGradient id="paint1_linear_601_20584" x1="502.239" y1="903" x2="502.239" y2="1341.3" gradientUnits="userSpaceOnUse">
<stop stop-color="#EFFFEF"/>
<stop offset="1" stop-color="#00FFD1"/>
</linearGradient>
</defs>
</svg>
