<svg width="2040" height="1640" viewBox="0 0 2040 1640" fill="none" xmlns="http://www.w3.org/2000/svg">
<g filter="url(#filter0_f_601_20587)">
<path fill-rule="evenodd" clip-rule="evenodd" d="M1559.21 300C1667.09 300 1740 400.891 1740 508.67C1740 622.595 1673.24 737.751 1559.21 737.751C1434.15 737.751 1335.66 633.616 1335.66 508.67C1335.66 389.302 1439.73 300 1559.21 300Z" fill="url(#paint0_linear_601_20587)"/>
</g>
<g filter="url(#filter1_f_601_20587)">
<path fill-rule="evenodd" clip-rule="evenodd" d="M523.555 902.25C631.433 902.25 704.344 1003.14 704.344 1110.92C704.344 1224.85 637.585 1340 523.555 1340C398.496 1340 300 1235.87 300 1110.92C300 991.552 404.078 902.25 523.555 902.25Z" fill="url(#paint1_linear_601_20587)"/>
</g>
<defs>
<filter id="filter0_f_601_20587" x="1035.66" y="0" width="1004.34" height="1037.75" filterUnits="userSpaceOnUse" color-interpolation-filters="sRGB">
<feFlood flood-opacity="0" result="BackgroundImageFix"/>
<feBlend mode="normal" in="SourceGraphic" in2="BackgroundImageFix" result="shape"/>
<feGaussianBlur stdDeviation="150" result="effect1_foregroundBlur_601_20587"/>
</filter>
<filter id="filter1_f_601_20587" x="0" y="602.25" width="1004.34" height="1037.75" filterUnits="userSpaceOnUse" color-interpolation-filters="sRGB">
<feFlood flood-opacity="0" result="BackgroundImageFix"/>
<feBlend mode="normal" in="SourceGraphic" in2="BackgroundImageFix" result="shape"/>
<feGaussianBlur stdDeviation="150" result="effect1_foregroundBlur_601_20587"/>
</filter>
<linearGradient id="paint0_linear_601_20587" x1="1537.83" y1="300" x2="1537.83" y2="737.751" gradientUnits="userSpaceOnUse">
<stop stop-color="#EFFFEF"/>
<stop offset="1" stop-color="#00FFD1"/>
</linearGradient>
<linearGradient id="paint1_linear_601_20587" x1="502.172" y1="902.25" x2="502.172" y2="1340" gradientUnits="userSpaceOnUse">
<stop stop-color="#EFFFEF"/>
<stop offset="1" stop-color="#00FFD1"/>
</linearGradient>
</defs>
</svg>
