<svg width="2040" height="1642" viewBox="0 0 2040 1642" fill="none" xmlns="http://www.w3.org/2000/svg">
<g filter="url(#filter0_f_1_602)">
<path fill-rule="evenodd" clip-rule="evenodd" d="M1559.21 300C1667.09 300 1740 401.017 1740 508.93C1740 622.997 1673.24 738.296 1559.21 738.296C1434.15 738.296 1335.66 634.031 1335.66 508.93C1335.66 389.413 1439.73 300 1559.21 300Z" fill="url(#paint0_linear_1_602)"/>
</g>
<g filter="url(#filter1_f_1_602)">
<path fill-rule="evenodd" clip-rule="evenodd" d="M523.555 903C631.433 903 704.344 1004.02 704.344 1111.93C704.344 1226 637.585 1341.3 523.555 1341.3C398.496 1341.3 300 1237.03 300 1111.93C300 992.413 404.078 903 523.555 903Z" fill="url(#paint1_linear_1_602)"/>
</g>
<defs>
<filter id="filter0_f_1_602" x="1035.66" y="0" width="1004.34" height="1038.3" filterUnits="userSpaceOnUse" color-interpolation-filters="sRGB">
<feFlood flood-opacity="0" result="BackgroundImageFix"/>
<feBlend mode="normal" in="SourceGraphic" in2="BackgroundImageFix" result="shape"/>
<feGaussianBlur stdDeviation="150" result="effect1_foregroundBlur_1_602"/>
</filter>
<filter id="filter1_f_1_602" x="0" y="603" width="1004.34" height="1038.3" filterUnits="userSpaceOnUse" color-interpolation-filters="sRGB">
<feFlood flood-opacity="0" result="BackgroundImageFix"/>
<feBlend mode="normal" in="SourceGraphic" in2="BackgroundImageFix" result="shape"/>
<feGaussianBlur stdDeviation="150" result="effect1_foregroundBlur_1_602"/>
</filter>
<linearGradient id="paint0_linear_1_602" x1="1537.83" y1="300" x2="1537.83" y2="738.296" gradientUnits="userSpaceOnUse">
<stop stop-color="#EFFFEF"/>
<stop offset="1" stop-color="#9747FF"/>
</linearGradient>
<linearGradient id="paint1_linear_1_602" x1="502.172" y1="903" x2="502.172" y2="1341.3" gradientUnits="userSpaceOnUse">
<stop stop-color="#EFFFEF"/>
<stop offset="1" stop-color="#9747FF"/>
</linearGradient>
</defs>
</svg>
