<svg width="21" height="20" viewBox="0 0 21 20" fill="none" xmlns="http://www.w3.org/2000/svg">
<path opacity="0.2" d="M5.94427 17.0547C5.88611 17.1137 5.81679 17.1606 5.74034 17.1926C5.66389 17.2247 5.58184 17.2411 5.49895 17.2411C5.41607 17.2411 5.33402 17.2247 5.25757 17.1926C5.18112 17.1606 5.1118 17.1137 5.05364 17.0547L3.44427 15.4453C3.38521 15.3872 3.33832 15.3178 3.30631 15.2414C3.2743 15.1649 3.25781 15.0829 3.25781 15C3.25781 14.9171 3.2743 14.8351 3.30631 14.7586C3.33832 14.6822 3.38521 14.6128 3.44427 14.5547L11.749 6.25L14.249 8.75L5.94427 17.0547Z" fill="white"/>
<path d="M17.375 10V13.75" stroke="white" stroke-width="2" stroke-linecap="round" stroke-linejoin="round"/>
<path d="M15.5 11.875H19.25" stroke="white" stroke-width="2" stroke-linecap="round" stroke-linejoin="round"/>
<path d="M7.0625 3.125V6.25" stroke="white" stroke-width="2" stroke-linecap="round" stroke-linejoin="round"/>
<path d="M5.5 4.6875H8.625" stroke="white" stroke-width="2" stroke-linecap="round" stroke-linejoin="round"/>
<path d="M13.625 14.375V16.875" stroke="white" stroke-width="2" stroke-linecap="round" stroke-linejoin="round"/>
<path d="M12.375 15.625H14.875" stroke="white" stroke-width="2" stroke-linecap="round" stroke-linejoin="round"/>
<path d="M15.0634 2.94052L3.44585 14.5581C3.20177 14.8021 3.20177 15.1979 3.44585 15.4419L5.0617 17.0578C5.30577 17.3019 5.7015 17.3019 5.94558 17.0578L17.5631 5.44025C17.8072 5.19617 17.8072 4.80044 17.5631 4.55636L15.9473 2.94052C15.7032 2.69644 15.3075 2.69644 15.0634 2.94052Z" stroke="white" stroke-width="2" stroke-linecap="round" stroke-linejoin="round"/>
<path d="M11.75 6.25L14.25 8.75" stroke="white" stroke-width="2" stroke-linecap="round" stroke-linejoin="round"/>
</svg>
