<svg width="20" height="21" viewBox="0 0 20 21" fill="none" xmlns="http://www.w3.org/2000/svg">
<path opacity="0.2" d="M5.44427 17.7227C5.38611 17.7817 5.31679 17.8286 5.24034 17.8606C5.16389 17.8926 5.08184 17.9091 4.99895 17.9091C4.91607 17.9091 4.83402 17.8926 4.75757 17.8606C4.68112 17.8286 4.6118 17.7817 4.55364 17.7227L2.94427 16.1133C2.88521 16.0551 2.83832 15.9858 2.80631 15.9094C2.7743 15.8329 2.75781 15.7508 2.75781 15.668C2.75781 15.5851 2.7743 15.503 2.80631 15.4266C2.83832 15.3501 2.88521 15.2808 2.94427 15.2227L11.249 6.91797L13.749 9.41797L5.44427 17.7227Z" fill="white"/>
<path d="M16.875 10.668V14.418" stroke="white" stroke-width="2" stroke-linecap="round" stroke-linejoin="round"/>
<path d="M15 12.543H18.75" stroke="white" stroke-width="2" stroke-linecap="round" stroke-linejoin="round"/>
<path d="M6.5625 3.79297V6.91797" stroke="white" stroke-width="2" stroke-linecap="round" stroke-linejoin="round"/>
<path d="M5 5.35547H8.125" stroke="white" stroke-width="2" stroke-linecap="round" stroke-linejoin="round"/>
<path d="M13.125 15.043V17.543" stroke="white" stroke-width="2" stroke-linecap="round" stroke-linejoin="round"/>
<path d="M11.875 16.293H14.375" stroke="white" stroke-width="2" stroke-linecap="round" stroke-linejoin="round"/>
<path d="M14.5634 3.60848L2.94585 15.226C2.70177 15.4701 2.70177 15.8658 2.94585 16.1099L4.5617 17.7258C4.80577 17.9698 5.2015 17.9698 5.44558 17.7258L17.0631 6.10822C17.3072 5.86414 17.3072 5.46841 17.0631 5.22433L15.4473 3.60848C15.2032 3.36441 14.8075 3.36441 14.5634 3.60848Z" stroke="white" stroke-width="2" stroke-linecap="round" stroke-linejoin="round"/>
<path d="M11.25 6.91797L13.75 9.41797" stroke="white" stroke-width="2" stroke-linecap="round" stroke-linejoin="round"/>
</svg>
