<svg width="20" height="20" viewBox="0 0 20 20" fill="none" xmlns="http://www.w3.org/2000/svg">
<path d="M7.35156 14.4219C6.46094 17.0703 2.92969 17.0703 2.92969 17.0703C2.92969 17.0703 2.92969 13.5391 5.57813 12.6484" stroke="#F8F9FF" stroke-width="1.5" stroke-linecap="round" stroke-linejoin="round"/>
<path d="M15.3047 8.23495L10 13.5396L6.46094 10.0006L11.7656 4.69589C13.7734 2.68808 15.7812 2.71152 16.6406 2.83652C16.7732 2.85421 16.8963 2.91505 16.9909 3.00965C17.0855 3.10425 17.1464 3.22735 17.1641 3.35995C17.2891 4.21933 17.3125 6.22714 15.3047 8.23495Z" stroke="#F8F9FF" stroke-width="1.5" stroke-linecap="round" stroke-linejoin="round"/>
<path d="M14.4219 9.11719V14.1641C14.4195 14.3289 14.3521 14.4862 14.2344 14.6016L11.7109 17.1328C11.6309 17.2128 11.5306 17.2695 11.4208 17.297C11.3111 17.3244 11.1959 17.3215 11.0876 17.2886C10.9794 17.2558 10.882 17.1941 10.8061 17.1102C10.7301 17.0264 10.6783 16.9235 10.6562 16.8125L10 13.5391" stroke="#F8F9FF" stroke-width="1.5" stroke-linecap="round" stroke-linejoin="round"/>
<path d="M10.882 5.57812H5.83515C5.67029 5.58047 5.51304 5.64787 5.39765 5.76563L2.8664 8.28906C2.78643 8.36912 2.7297 8.46939 2.70226 8.57916C2.67481 8.68894 2.67768 8.8041 2.71057 8.91237C2.74345 9.02064 2.80511 9.11796 2.88896 9.19393C2.97282 9.2699 3.07573 9.32168 3.18671 9.34375L6.46015 10" stroke="#F8F9FF" stroke-width="1.5" stroke-linecap="round" stroke-linejoin="round"/>
</svg>
