<svg width="32" height="32" viewBox="0 0 32 32" fill="none" xmlns="http://www.w3.org/2000/svg">
<path fill-rule="evenodd" clip-rule="evenodd" d="M0 16C0 7.16344 7.16344 0 16 0C24.8366 0 32 7.16344 32 16C32 24.8366 24.8366 32 16 32C7.16344 32 0 24.8366 0 16Z" fill="#009379"/>
<path fill-rule="evenodd" clip-rule="evenodd" d="M15.999 7.46484C13.6814 7.46484 13.3906 7.47498 12.4804 7.5164C11.5719 7.558 10.9518 7.70182 10.4092 7.91285C9.84798 8.13081 9.37189 8.42236 8.89757 8.89686C8.4229 9.37117 8.13134 9.84727 7.91267 10.4083C7.70111 10.9511 7.55711 11.5714 7.51622 12.4795C7.47551 13.3897 7.46484 13.6807 7.46484 15.9983C7.46484 18.3158 7.47515 18.6058 7.5164 19.516C7.55818 20.4244 7.702 21.0445 7.91285 21.5871C8.13098 22.1484 8.42254 22.6245 8.89704 23.0988C9.37117 23.5735 9.84727 23.8657 10.4082 24.0837C10.9511 24.2947 11.5714 24.4385 12.4797 24.4801C13.3899 24.5216 13.6806 24.5317 15.9979 24.5317C18.3156 24.5317 18.6056 24.5216 19.5158 24.4801C20.4243 24.4385 21.0451 24.2947 21.588 24.0837C22.1491 23.8657 22.6245 23.5735 23.0986 23.0988C23.5733 22.6245 23.8648 22.1484 24.0835 21.5873C24.2933 21.0445 24.4373 20.4243 24.48 19.5162C24.5208 18.6059 24.5315 18.3158 24.5315 15.9983C24.5315 13.6807 24.5208 13.3899 24.48 12.4797C24.4373 11.5712 24.2933 10.9511 24.0835 10.4085C23.8648 9.84727 23.5733 9.37117 23.0986 8.89686C22.6239 8.42219 22.1493 8.13063 21.5875 7.91285C21.0435 7.70182 20.423 7.558 19.5146 7.5164C18.6043 7.47498 18.3146 7.46484 15.9963 7.46484H15.999ZM15.2334 9.00261C15.4606 9.00226 15.7141 9.00261 15.9989 9.00261C18.2774 9.00261 18.5474 9.01079 19.4472 9.05168C20.2792 9.08973 20.7307 9.22875 21.0315 9.34555C21.4298 9.50022 21.7137 9.68511 22.0122 9.98378C22.3108 10.2824 22.4957 10.5669 22.6507 10.9651C22.7675 11.2656 22.9067 11.7171 22.9446 12.5491C22.9855 13.4487 22.9944 13.7189 22.9944 15.9963C22.9944 18.2736 22.9855 18.5439 22.9446 19.4434C22.9066 20.2754 22.7675 20.727 22.6507 21.0275C22.4961 21.4257 22.3108 21.7092 22.0122 22.0077C21.7135 22.3064 21.4299 22.4913 21.0315 22.646C20.7311 22.7633 20.2792 22.902 19.4472 22.94C18.5476 22.9809 18.2774 22.9898 15.9989 22.9898C13.7203 22.9898 13.4503 22.9809 12.5507 22.94C11.7187 22.9016 11.2672 22.7626 10.9662 22.6458C10.568 22.4911 10.2835 22.3062 9.98483 22.0075C9.68616 21.7089 9.50127 21.4251 9.34625 21.0267C9.22945 20.7263 9.09025 20.2747 9.05238 19.4427C9.01149 18.5432 9.00331 18.2729 9.00331 15.9942C9.00331 13.7154 9.01149 13.4466 9.05238 12.547C9.09042 11.715 9.22945 11.2634 9.34625 10.9626C9.50092 10.5644 9.68616 10.28 9.98483 9.98129C10.2835 9.68262 10.568 9.49773 10.9662 9.34271C11.267 9.22537 11.7187 9.0867 12.5507 9.04848C13.3379 9.01292 13.643 9.00226 15.2334 9.00048V9.00261ZM20.554 10.4195C19.9887 10.4195 19.53 10.8777 19.53 11.4432C19.53 12.0085 19.9887 12.4672 20.554 12.4672C21.1194 12.4672 21.578 12.0085 21.578 11.4432C21.578 10.8778 21.1194 10.4195 20.554 10.4195ZM15.999 11.616C13.5789 11.616 11.6167 13.5781 11.6167 15.9982C11.6167 18.4184 13.5789 20.3796 15.999 20.3796C18.4191 20.3796 20.3805 18.4184 20.3805 15.9982C20.3805 13.5781 18.4191 11.616 15.999 11.616ZM15.999 13.1538C17.5698 13.1538 18.8434 14.4272 18.8434 15.9982C18.8434 17.5691 17.5698 18.8427 15.999 18.8427C14.4279 18.8427 13.1545 17.5691 13.1545 15.9982C13.1545 14.4272 14.4279 13.1538 15.999 13.1538Z" fill="white"/>
</svg>
